<svg width="105" height="60" viewBox="0 0 105 60" fill="none" xmlns="http://www.w3.org/2000/svg">
<rect x="2.5" y="2.5" width="100" height="55" fill="white" stroke="black" stroke-width="5"/>
<path d="M36.0352 15.2971L32.4316 24.1038C31.1074 23.4709 29.8418 22.9905 28.6348 22.6624C27.4395 22.3225 26.3848 22.0764 25.4707 21.9241C24.3926 21.7483 23.3906 21.6604 22.4648 21.6604C21.0938 21.6838 19.9336 21.7893 18.9844 21.9768C18.0352 22.1526 17.2734 22.3987 16.6992 22.7151C16.1367 23.0198 15.7441 23.3713 15.5215 23.7698C15.3105 24.1682 15.2578 24.5959 15.3633 25.053C15.4805 25.5686 15.7559 25.9788 16.1895 26.2834C16.623 26.5764 17.2031 26.7991 17.9297 26.9514C18.6562 27.092 19.5176 27.1858 20.5137 27.2327C21.5215 27.2795 22.6523 27.3088 23.9062 27.3206C24.5625 27.3323 25.2891 27.3557 26.0859 27.3909C26.8945 27.426 27.709 27.5198 28.5293 27.6721C29.3613 27.8127 30.1641 28.0295 30.9375 28.3225C31.7109 28.6155 32.3965 29.0256 32.9941 29.553C33.6035 30.0803 34.0898 30.7424 34.4531 31.5393C34.8164 32.3362 34.998 33.3147 34.998 34.4749C34.998 35.5295 34.8457 36.4436 34.541 37.217C34.2363 37.9905 33.8262 38.6526 33.3105 39.2034C32.7949 39.7424 32.1855 40.1877 31.4824 40.5393C30.791 40.8792 30.0527 41.1487 29.2676 41.3479C28.4824 41.5471 27.6738 41.6819 26.8418 41.7522C26.0098 41.8225 25.2012 41.8577 24.416 41.8577C23.4199 41.8577 22.4648 41.8108 21.5508 41.717C20.6484 41.635 19.7637 41.512 18.8965 41.3479C18.0293 41.1838 17.1621 40.9905 16.2949 40.7678C15.4395 40.5334 14.5664 40.2756 13.6758 39.9944L12.6387 43.0881L10.1602 42.3674L12.4277 33.6838C13.4824 34.1409 14.5254 34.551 15.5566 34.9143C16.5996 35.2776 17.6426 35.5881 18.6855 35.8459C19.7402 36.092 20.8008 36.2795 21.8672 36.4084C22.9336 36.5374 24.0234 36.6018 25.1367 36.6018C26.2266 36.6018 27.1582 36.5374 27.9316 36.4084C28.7051 36.2795 29.332 36.0862 29.8125 35.8284C30.3047 35.5706 30.6621 35.2483 30.8848 34.8616C31.1074 34.4749 31.2188 34.0237 31.2188 33.5081C31.2188 32.8635 31.0547 32.3538 30.7266 31.9788C30.3984 31.6038 29.9004 31.3167 29.2324 31.1174C28.5762 30.9182 27.75 30.7834 26.7539 30.7131C25.7695 30.6428 24.6152 30.5901 23.291 30.5549C22.3652 30.5315 21.3926 30.4963 20.373 30.4495C19.3535 30.4026 18.3516 30.303 17.3672 30.1506C16.3828 29.9983 15.4453 29.7756 14.5547 29.4827C13.6641 29.1897 12.8789 28.7854 12.1992 28.2698C11.5312 27.7542 10.998 27.1096 10.5996 26.3362C10.2012 25.5627 10.002 24.6194 10.002 23.5061C10.002 22.51 10.1602 21.6135 10.4766 20.8167C10.8047 20.0081 11.2617 19.2991 11.8477 18.6897C12.4336 18.0686 13.125 17.5413 13.9219 17.1077C14.7305 16.6624 15.6152 16.3049 16.5762 16.0354C17.5488 15.7542 18.5742 15.5549 19.6523 15.4377C20.7422 15.3206 21.8613 15.2737 23.0098 15.2971C24.1816 15.3557 25.3418 15.4729 26.4902 15.6487C26.9707 15.719 27.4746 15.8127 28.002 15.9299C28.5293 16.0354 29.0508 16.1702 29.5664 16.3342C30.082 16.4866 30.5801 16.6682 31.0605 16.8792C31.541 17.0784 31.9863 17.3069 32.3965 17.5647L33.1523 14.137L36.0352 15.2971ZM59.2383 39.0803L58.3418 42.3323L49.6055 41.6819C49.6289 41.5061 49.6582 41.3127 49.6934 41.1018C49.7285 40.8909 49.7637 40.6917 49.7988 40.5042C49.8457 40.2932 49.8867 40.0823 49.9219 39.8713C48.9023 40.4338 47.8711 40.8323 46.8281 41.0667C45.7852 41.301 44.7656 41.4182 43.7695 41.4182C43.043 41.4182 42.2871 41.3538 41.502 41.2249C40.7168 41.0959 39.9961 40.8733 39.3398 40.5569C38.6953 40.2288 38.1621 39.801 37.7402 39.2737C37.3184 38.7346 37.1074 38.0608 37.1074 37.2522C37.1074 36.3967 37.3008 35.6584 37.6875 35.0374C38.0742 34.4163 38.584 33.8889 39.2168 33.4553C39.8496 33.01 40.5645 32.6526 41.3613 32.3831C42.1699 32.1135 42.9844 31.9026 43.8047 31.7502C44.6367 31.5862 45.4453 31.4807 46.2305 31.4338C47.0156 31.3752 47.707 31.3459 48.3047 31.3459C48.9375 31.3459 49.5059 31.3635 50.0098 31.3987C50.5137 31.4221 50.9648 31.4631 51.3633 31.5217C51.5039 30.6663 51.5742 29.8518 51.5742 29.0784C51.5742 28.5159 51.498 28.0061 51.3457 27.5491C51.2051 27.092 50.9531 26.7112 50.5898 26.4065C50.2383 26.1018 49.7637 25.8733 49.166 25.7209C48.5801 25.5686 47.8477 25.51 46.9688 25.5452C46.3828 25.6038 45.8438 25.7678 45.3516 26.0374C45.1406 26.1545 44.9238 26.301 44.7012 26.4768C44.4902 26.6526 44.2852 26.8635 44.0859 27.1096C43.8984 27.3557 43.7285 27.6487 43.5762 27.9885C43.4238 28.3167 43.3066 28.6917 43.2246 29.1135L37.5469 29.3948C37.6289 28.5862 37.834 27.8713 38.1621 27.2502C38.4902 26.6174 38.8887 26.0725 39.3574 25.6155C39.8379 25.1467 40.3652 24.7483 40.9395 24.4202C41.5137 24.092 42.0938 23.8167 42.6797 23.594C44.0625 23.0901 45.6035 22.7795 47.3027 22.6624C48.8262 22.6389 50.1152 22.7854 51.1699 23.1018C52.2363 23.4065 53.1152 23.8225 53.8066 24.3499C54.498 24.8655 55.0371 25.4514 55.4238 26.1077C55.8105 26.7639 56.0918 27.4202 56.2676 28.0764C56.4434 28.7209 56.543 29.3362 56.5664 29.9221C56.5898 30.4963 56.5957 30.9709 56.584 31.3459C56.5488 31.803 56.4668 32.3772 56.3379 33.0686C56.2324 33.6663 56.0742 34.4163 55.8633 35.3186C55.6641 36.2209 55.3887 37.2991 55.0371 38.553L59.2383 39.0803ZM50.959 33.8948C50.6895 33.8713 50.3965 33.8538 50.0801 33.842C49.7637 33.8303 49.4355 33.8245 49.0957 33.8245C48.8027 33.8245 48.4395 33.8362 48.0059 33.8596C47.584 33.8831 47.1387 33.9299 46.6699 34.0002C46.2012 34.0588 45.7324 34.1467 45.2637 34.2639C44.7949 34.3811 44.373 34.5334 43.998 34.7209C43.6348 34.9084 43.3359 35.137 43.1016 35.4065C42.8672 35.676 42.75 35.9924 42.75 36.3557C42.75 36.637 42.832 36.9065 42.9961 37.1643C43.1719 37.4104 43.4062 37.6213 43.6992 37.7971C43.9922 37.9729 44.332 38.1018 44.7188 38.1838C45.1172 38.2542 45.5332 38.2542 45.9668 38.1838C46.8457 38.0198 47.6719 37.8206 48.4453 37.5862C49.2305 37.3401 49.9043 37.1057 50.4668 36.8831C50.5605 36.3909 50.6484 35.8928 50.7305 35.3889C50.8125 34.885 50.8887 34.387 50.959 33.8948ZM84.2344 37.2874L83.7246 41.5061L74.6895 41.137C74.8301 39.7659 74.9531 38.5881 75.0586 37.6038C75.1641 36.6194 75.252 35.7815 75.3223 35.0901C75.4043 34.387 75.4688 33.801 75.5156 33.3323C75.5742 32.8518 75.6152 32.4358 75.6387 32.0842C75.6738 31.7209 75.6973 31.3928 75.709 31.0999C75.7207 30.8069 75.7266 30.4905 75.7266 30.1506C75.7266 29.6233 75.6621 29.1311 75.5332 28.6741C75.416 28.2053 75.2344 27.7952 74.9883 27.4436C74.7422 27.092 74.4316 26.8167 74.0566 26.6174C73.6934 26.4065 73.2656 26.2893 72.7734 26.2659C72.4805 26.301 72.1523 26.3831 71.7891 26.512C71.4844 26.6174 71.1152 26.7756 70.6816 26.9866C70.2598 27.1858 69.7852 27.4729 69.2578 27.8479L68.5371 37.9026L72.4922 37.7092L72.1758 41.5061L60.0996 41.4182V38.219L63.7383 38.0784L63.4922 27.0217L59.748 27.1272V23.928L69.6094 22.6624L69.4336 24.9299C70.1602 24.5198 70.8457 24.2034 71.4902 23.9807C72.1465 23.7581 72.7266 23.5823 73.2305 23.4534C73.8164 23.3245 74.3613 23.2307 74.8652 23.1721C76.1543 23.1721 77.2266 23.3655 78.082 23.7522C78.9375 24.1389 79.6172 24.678 80.1211 25.3694C80.9062 24.842 81.668 24.4319 82.4062 24.1389C83.1445 23.8459 83.8008 23.6292 84.375 23.4885C85.043 23.3245 85.6758 23.219 86.2734 23.1721C87.4453 23.1721 88.4414 23.3303 89.2617 23.6467C90.082 23.9631 90.7441 24.4084 91.248 24.9827C91.7637 25.5452 92.1387 26.2307 92.373 27.0393C92.6074 27.8362 92.7246 28.7209 92.7246 29.6936C92.7246 30.092 92.7188 30.4495 92.707 30.7659C92.6953 31.0706 92.6719 31.3752 92.6367 31.6799C92.6133 31.9729 92.5781 32.2834 92.5312 32.6116C92.4961 32.9397 92.4492 33.3264 92.3906 33.7717C92.332 34.217 92.2617 34.7385 92.1797 35.3362C92.0977 35.9338 92.0039 36.6545 91.8984 37.4983L95.6777 37.2874L95.1328 41.5061L86.0977 41.137C86.2383 39.7659 86.3613 38.5881 86.4668 37.6038C86.5723 36.6194 86.6602 35.7815 86.7305 35.0901C86.8125 34.387 86.877 33.801 86.9238 33.3323C86.9824 32.8518 87.0234 32.4358 87.0469 32.0842C87.082 31.7209 87.1055 31.3928 87.1172 31.0999C87.1289 30.8069 87.1348 30.4905 87.1348 30.1506C87.1348 29.6233 87.0703 29.1311 86.9414 28.6741C86.8242 28.2053 86.6426 27.7952 86.3965 27.4436C86.1621 27.092 85.8574 26.8167 85.4824 26.6174C85.1191 26.4065 84.6914 26.2893 84.1992 26.2659C83.9531 26.301 83.6719 26.3772 83.3555 26.4944C83.0859 26.5881 82.7578 26.7288 82.3711 26.9163C81.9961 27.1038 81.5684 27.3557 81.0879 27.6721C81.2168 28.3167 81.2812 28.9788 81.2812 29.6584C81.2812 30.0686 81.2754 30.4319 81.2637 30.7483C81.252 31.0647 81.2285 31.3752 81.1934 31.6799C81.1699 31.9729 81.1348 32.2834 81.0879 32.6116C81.0527 32.928 81.0059 33.3088 80.9473 33.7542C80.8887 34.1995 80.8184 34.7268 80.7363 35.3362C80.666 35.9338 80.584 36.6545 80.4902 37.4983L84.2344 37.2874Z" fill="black"/>
</svg>
